HIERARCHY
ROOT Pelvis
{
	OFFSET 0.000000 0.000000 0.000000
	CHANNELS 6 Xposition Yposition Zposition Xrotation Yrotation Zrotation
	JOINT LeftUpLeg_virtual
	{
		OFFSET 0.000000 0.000000 0.000000
		CHANNELS 3 Xrotation Yrotation Zrotation
		JOINT LeftUpLeg
		{
			OFFSET 18.735201 -5.666702 -4.541200
			CHANNELS 3 Xrotation Yrotation Zrotation
			JOINT LeftLeg
			{
				OFFSET -0.021200 -31.938179 0.493100
				CHANNELS 3 Xrotation Yrotation Zrotation
				JOINT LeftFoot
				{
					OFFSET 0.021200 -31.938179 -4.336299
					CHANNELS 3 Xrotation Yrotation Zrotation
					JOINT LeftToeBase
					{
						OFFSET 0.943001 -26.722000 15.023500
						CHANNELS 3 Xrotation Yrotation Zrotation
						End Site
						{
							OFFSET 0 0 0
						}
					}
				}
			}
		}
	}
	JOINT RightUpLeg_virtual
	{
		OFFSET 0.000000 0.000000 0.000000
		CHANNELS 3 Xrotation Yrotation Zrotation
		JOINT RightUpLeg
		{
			OFFSET -18.735201 -5.666702 -4.541200
			CHANNELS 3 Xrotation Yrotation Zrotation
			JOINT RightLeg
			{
				OFFSET 0.018946 -31.938133 0.493100
				CHANNELS 3 Xrotation Yrotation Zrotation
				JOINT RightFoot
				{
					OFFSET -0.018946 -31.938126 -4.336299
					CHANNELS 3 Xrotation Yrotation Zrotation
					JOINT RightToeBase
					{
						OFFSET -0.943001 -26.722004 15.023500
						CHANNELS 3 Xrotation Yrotation Zrotation
						End Site
						{
							OFFSET 0 0 0
						}
					}
				}
			}
		}
	}
	JOINT Hips_virtual
	{
		OFFSET 0.000000 0.000000 0.000000
		CHANNELS 3 Xrotation Yrotation Zrotation
		JOINT Hips
		{
			OFFSET -0.000000 -0.000000 -0.000000
			CHANNELS 3 Xrotation Yrotation Zrotation
			JOINT Spine
			{
				OFFSET 0.000000 10.199997 -0.299500
				CHANNELS 3 Xrotation Yrotation Zrotation
				JOINT Spine1
				{
					OFFSET 0.000000 11.900002 -1.516600
					CHANNELS 3 Xrotation Yrotation Zrotation
					JOINT Spine2
					{
						OFFSET 0.000000 13.600006 -2.842500
						CHANNELS 3 Xrotation Yrotation Zrotation
						JOINT Neck_virtual
						{
							OFFSET 0.000000 0.000000 0.000000
							CHANNELS 3 Xrotation Yrotation Zrotation
							JOINT Neck
							{
								OFFSET 0.000000 9.624100 -2.890100
								CHANNELS 3 Xrotation Yrotation Zrotation
								JOINT Head
								{
									OFFSET 0.000000 14.068802 -1.351900
									CHANNELS 3 Xrotation Yrotation Zrotation
									End Site
									{
										OFFSET 0 0 0
									}
								}
							}
						}
						JOINT LeftShoulder_virtual
						{
							OFFSET 0.000000 0.000000 0.000000
							CHANNELS 3 Xrotation Yrotation Zrotation
							JOINT LeftShoulder
							{
								OFFSET 15.263000 10.923401 -0.547700
								CHANNELS 3 Xrotation Yrotation Zrotation
								JOINT LeftArm
								{
									OFFSET 25.438599 -2.830597 -13.032500
									CHANNELS 3 Xrotation Yrotation Zrotation
									JOINT LeftForeArm
									{
										OFFSET 29.960503 0.000000 0.000000
										CHANNELS 3 Xrotation Yrotation Zrotation
										JOINT LeftHand
										{
											OFFSET 27.849251 0.000000 0.000000
											CHANNELS 3 Xrotation Yrotation Zrotation
											End Site
											{
												OFFSET 0 0 0
											}
										}
									}
								}
							}
						}
						JOINT RightShoulder_virtual
						{
							OFFSET 0.000000 0.000000 0.000000
							CHANNELS 3 Xrotation Yrotation Zrotation
							JOINT RightShoulder
							{
								OFFSET -15.263000 10.923401 -0.547700
								CHANNELS 3 Xrotation Yrotation Zrotation
								JOINT RightArm
								{
									OFFSET -25.438599 -2.830597 -13.032500
									CHANNELS 3 Xrotation Yrotation Zrotation
									JOINT RightForeArm
									{
										OFFSET -29.960503 0.000000 0.000000
										CHANNELS 3 Xrotation Yrotation Zrotation
										JOINT RightHand
										{
											OFFSET -27.849251 0.000000 0.000000
											CHANNELS 3 Xrotation Yrotation Zrotation
											End Site
											{
												OFFSET 0 0 0
											}
										}
									}
								}
							}
						}
					}
				}
			}
		}
	}
}
MOTION
Frames: 5
Frame Time: 0.03333333
20.627451 86.820091 4.424543 0.000000 0.000000 0.000000 154.170989 -63.931937 159.766649 -58.031241 41.313144 58.367935 39.480734 -13.254185 -5.143497 4.868032 7.925674 -3.472224 0.000000 0.000000 0.000000 154.170989 -63.931937 159.766649 -44.618624 -11.771272 -31.499822 50.633995 -2.930114 6.071469 -15.166075 -4.142774 11.987434 0.000000 0.000000 0.000000 154.170989 -63.931937 159.766649 -0.000001 0.000001 0.000000 10.375985 -2.812198 2.245157 5.441872 -1.990659 -3.512889 0.000000 0.000000 0.000000 -3.218472 -5.241831 -2.484904 1.182636 2.684180 -0.078474 0.000000 0.000000 0.000000 -3.218472 -5.241831 -2.484904 -1.837981 -14.467486 -4.296794 -24.431875 -9.271239 -47.099233 -14.226255 -27.309258 -17.570315 0.000000 0.000000 0.000000 -3.218472 -5.241831 -2.484904 -5.499247 24.268050 2.019076 -13.675020 -20.288503 57.835153 13.715965 34.549419 -4.170639 0.000000 0.000000 0.000000 
20.658894 86.736000 3.810427 0.000000 0.000000 0.000000 154.859936 -62.543585 160.554743 -60.102400 40.434245 59.543984 39.805140 -14.793628 -4.821698 6.658161 7.042582 -1.358151 0.000000 0.000000 0.000000 154.859936 -62.543585 160.554743 -45.375689 -11.484496 -30.812807 51.169554 -2.638790 6.152934 -15.620007 -3.514236 11.257111 0.000000 0.000000 0.000000 154.859936 -62.543585 160.554743 0.000000 -0.000003 0.000001 10.486030 -2.789195 2.225451 5.299429 -1.863426 -3.688210 0.000000 0.000000 0.000000 -3.740329 -4.710132 -2.529083 1.183793 2.774766 -0.140983 0.000000 0.000000 0.000000 -3.740329 -4.710132 -2.529083 -1.833824 -14.445309 -4.259441 -24.484046 -9.447711 -47.266763 -14.703154 -28.284800 -17.623218 0.000000 0.000000 0.000000 -3.740329 -4.710132 -2.529083 -5.518096 24.192602 2.050976 -13.471670 -20.142009 57.616634 14.645635 34.292508 -4.668594 0.000000 0.000000 0.000000 
20.652651 86.648903 3.209661 0.000000 0.000000 0.000000 155.484434 -61.224115 161.301788 -61.869561 39.630103 60.346572 39.828015 -16.168854 -4.479442 8.534374 6.232317 0.635651 0.000000 0.000000 0.000000 155.484434 -61.224115 161.301788 -46.041711 -11.195069 -30.163266 51.705966 -2.369399 6.190980 -16.089477 -2.929590 10.622992 0.000000 0.000000 0.000000 155.484434 -61.224115 161.301788 0.000000 -0.000002 0.000001 10.546460 -2.754512 2.191524 5.170760 -1.727738 -3.885305 0.000000 0.000000 0.000000 -4.258834 -4.169644 -2.589051 1.240235 2.831153 -0.118609 0.000000 0.000000 0.000000 -4.258834 -4.169644 -2.589051 -1.831040 -14.578219 -4.183432 -24.473708 -9.331604 -47.461171 -15.137499 -29.354859 -17.695164 0.000000 0.000000 0.000000 -4.258834 -4.169644 -2.589051 -5.543636 24.107504 2.123106 -13.173061 -20.156846 57.392331 15.493926 34.171020 -5.133768 0.000000 0.000000 0.000000 
20.619579 86.558479 2.549616 0.000000 0.000000 0.000000 156.032625 -59.944199 162.035856 -63.241015 38.975675 60.753180 39.481871 -17.330659 -4.157496 10.314556 5.440027 2.391053 0.000000 0.000000 0.000000 156.032625 -59.944199 162.035856 -46.666916 -10.888063 -29.524784 52.329809 -2.125148 6.174049 -16.660667 -2.376382 10.043791 0.000000 0.000000 0.000000 156.032625 -59.944199 162.035856 0.000000 0.000000 0.000000 10.569936 -2.715523 2.151524 5.077508 -1.603212 -4.097630 0.000000 0.000000 0.000000 -4.749408 -3.642993 -2.662469 1.243511 2.949433 -0.253881 0.000000 0.000000 0.000000 -4.749408 -3.642993 -2.662469 -1.821997 -14.611918 -4.119282 -24.396498 -9.365107 -47.588011 -15.736298 -30.089934 -17.677850 0.000000 0.000000 0.000000 -4.749408 -3.642993 -2.662469 -5.569917 24.018596 2.202747 -12.836173 -20.262258 57.156416 16.241543 34.139621 -5.554869 0.000000 0.000000 0.000000 
20.534189 86.472046 1.904799 0.000000 0.000000 0.000000 156.533387 -58.752604 162.746934 -64.359623 38.345730 60.904469 39.176411 -18.298499 -3.867927 11.638030 4.665110 4.048537 0.000000 0.000000 0.000000 156.533387 -58.752604 162.746934 -47.174774 -10.576846 -28.941953 52.937917 -1.904400 6.116185 -17.250949 -1.877949 9.573249 0.000000 0.000000 0.000000 156.533387 -58.752604 162.746934 0.000000 -0.000001 0.000000 10.584211 -2.696723 2.112101 5.035989 -1.495804 -4.316918 0.000000 0.000000 0.000000 -5.195334 -3.142244 -2.749177 1.196197 3.073068 -0.407989 0.000000 0.000000 0.000000 -5.195334 -3.142244 -2.749177 -1.812258 -14.622935 -4.069556 -24.236675 -9.343724 -47.660247 -16.237103 -30.888813 -17.606689 0.000000 0.000000 0.000000 -5.195334 -3.142244 -2.749177 -5.574964 23.957891 2.204158 -12.495514 -20.437476 56.950968 16.891046 34.094757 -5.909308 0.000000 0.000000 0.000000 
